<svg width="100" height="222" viewBox="0 0 100 222" fill="none" xmlns="http://www.w3.org/2000/svg">
<path d="M14.6171 207.26C-4.87264 187.77 -4.87264 156.061 14.6171 136.572C34.1068 117.082 65.8155 117.082 85.3052 136.572C104.795 156.061 104.795 187.77 85.3052 207.26C65.8155 226.749 34.1068 226.749 14.6171 207.26ZM82.9496 138.927C64.7586 120.736 35.1637 120.736 16.9774 138.927C-1.21359 157.118 -1.21359 186.713 16.9774 204.899C35.1685 223.09 64.7633 223.09 82.9496 204.899C101.141 186.708 101.141 157.113 82.9496 138.927Z" fill="white"/>
<path d="M83.4928 161.313C83.3175 161.138 83.1753 160.915 83.0947 160.668C81.3647 155.549 78.5398 151.014 74.7006 147.174C70.8662 143.34 66.3255 140.515 61.2067 138.78C60.5289 138.548 60.0739 137.918 60.0739 137.202V125.054C60.0739 124.542 60.3108 124.059 60.7137 123.741C61.1213 123.424 61.6474 123.315 62.1404 123.438C70.8899 125.628 78.9 130.168 85.2986 136.572C91.6972 142.975 96.2379 150.98 98.4277 159.73C98.5509 160.228 98.4372 160.754 98.1243 161.161C97.8068 161.569 97.3233 161.801 96.8114 161.801H84.6635C84.2085 161.801 83.7914 161.616 83.4833 161.308L83.4928 161.313ZM77.0562 144.819C80.9713 148.734 83.9241 153.322 85.8484 158.469H94.6359C92.4272 151.113 88.4126 144.392 82.9477 138.927C77.4828 133.462 70.7619 129.448 63.4106 127.244V136.031C68.558 137.951 73.146 140.904 77.061 144.823L77.0562 144.819Z" fill="white"/>
<path d="M14.6157 207.26C8.21713 200.861 3.67173 192.851 1.48198 184.101C1.35874 183.604 1.4725 183.078 1.78532 182.675C2.10289 182.267 2.58632 182.035 3.09821 182.035H15.2461C15.9618 182.035 16.5969 182.49 16.8244 183.168C18.5544 188.287 21.3793 192.823 25.2185 196.662C29.0529 200.496 33.5936 203.321 38.7125 205.056C39.3903 205.283 39.8452 205.918 39.8452 206.634V218.782C39.8452 219.294 39.6083 219.777 39.2054 220.095C38.7978 220.412 38.2717 220.521 37.774 220.398C29.0245 218.208 21.0191 213.668 14.6157 207.269V207.26ZM5.28324 185.362C7.49195 192.718 11.5065 199.439 16.9714 204.904C22.4363 210.369 29.1572 214.384 36.5133 216.592V207.805C31.3659 205.885 26.7778 202.932 22.8628 199.017C18.9478 195.102 15.995 190.514 14.0707 185.367H5.28324V185.362Z" fill="white"/>
<path d="M60.5621 219.953C60.2492 219.64 60.0739 219.218 60.0739 218.773V206.625C60.0739 205.909 60.5289 205.274 61.2067 205.046C66.3255 203.316 70.8614 200.491 74.7006 196.652C78.5398 192.813 81.3599 188.277 83.0946 183.158C83.3221 182.481 83.9573 182.026 84.673 182.026H96.8209C97.3328 182.026 97.8163 182.263 98.1338 182.665C98.4514 183.068 98.5604 183.599 98.4372 184.092C96.2427 192.842 91.702 200.847 85.3034 207.25C78.9047 213.654 70.8946 218.194 62.1451 220.384C61.6474 220.507 61.1213 220.394 60.7184 220.081C60.6663 220.033 60.6142 219.991 60.5668 219.943L60.5621 219.953ZM63.4059 207.8V216.588C70.7619 214.379 77.4828 210.364 82.9477 204.899C88.4126 199.435 92.4224 192.714 94.6359 185.358H85.8484C83.9289 190.505 80.976 195.088 77.0562 199.008C73.1412 202.923 68.5532 205.881 63.4059 207.8Z" fill="white"/>
<path d="M1.91877 161.313C1.87137 161.266 1.82399 161.213 1.78607 161.161C1.46851 160.758 1.35949 160.228 1.48272 159.73C3.67247 150.98 8.21313 142.97 14.6165 136.572C21.0199 130.173 29.0252 125.628 37.7747 123.438C38.2724 123.315 38.7985 123.428 39.2014 123.741C39.6043 124.059 39.8413 124.542 39.8413 125.054V137.202C39.8413 137.918 39.3863 138.553 38.7085 138.78C33.5896 140.51 29.0536 143.335 25.2145 147.174C21.38 151.009 18.5552 155.55 16.8204 160.668C16.5929 161.346 15.9578 161.801 15.2421 161.801H3.09424C2.6487 161.801 2.2221 161.626 1.91402 161.318L1.91877 161.313ZM36.5093 127.244C29.1532 129.453 22.4323 133.467 16.9674 138.932C11.5025 144.397 7.49269 151.118 5.27924 158.474H14.0667C15.9863 153.327 18.9391 148.743 22.8588 144.824C26.7738 140.909 31.3619 137.956 36.5093 136.031V127.244Z" fill="white"/>
<path d="M77.0603 144.819C62.1207 129.879 37.806 129.874 22.8664 144.819C7.92208 159.763 7.92682 184.073 22.8664 199.013C37.806 213.952 62.116 213.957 77.0603 199.013C92.0047 184.068 91.9999 159.758 77.0603 144.819Z" fill="white"/>
<path d="M63.7793 185.593L36.2517 185.776C35.092 185.783 34.1582 186.73 34.1659 187.889L34.1724 188.87C34.1801 190.03 35.1264 190.964 36.286 190.956L63.8137 190.774C64.9733 190.766 65.9071 189.82 65.8994 188.66L65.8929 187.679C65.8852 186.519 64.9389 185.585 63.7793 185.593Z" fill="#110A1D"/>
<path d="M40.0021 168.977C39.7035 168.977 39.4002 168.911 39.1253 168.778L36.9782 167.74C36.0445 167.285 35.6179 166.181 36.0065 165.218L36.9924 162.763C37.2958 162.014 38.0114 161.526 38.8172 161.521C39.1632 161.521 39.5044 161.607 39.8078 161.782L42.3672 163.242C42.846 163.512 43.1919 163.981 43.3152 164.522C43.4384 165.062 43.3294 165.631 43.0166 166.086L41.6136 168.119C41.2487 168.65 40.642 168.972 39.9974 168.972L40.0021 168.977Z" fill="#110A1D"/>
<path d="M59.8209 168.844C59.1763 168.844 58.5649 168.536 58.1952 168.01L56.8064 166.053C56.4841 165.602 56.3704 165.034 56.4842 164.493C56.5979 163.953 56.9392 163.479 57.4179 163.199L60.0579 161.649C60.3565 161.474 60.6978 161.379 61.0438 161.375C61.8495 161.37 62.5747 161.849 62.8875 162.593L63.8828 164.977C64.281 165.934 63.8686 167.048 62.9444 167.512L60.6978 168.636C60.4276 168.768 60.1242 168.844 59.8256 168.844H59.8209Z" fill="#110A1D"/>
<path d="M37.8395 183.935C36.6309 183.945 35.5455 183.187 35.1332 182.049L30.5404 169.408C30.2466 169.55 29.9337 169.659 29.6161 169.74C29.2417 169.835 28.8625 169.882 28.4786 169.882C28.2558 169.882 28.0378 169.873 27.8245 169.844C25.431 169.541 23.6157 167.489 23.6015 165.071C23.5825 162.398 25.7438 160.208 28.417 160.19C31.0902 160.171 33.28 162.332 33.2942 165.005C33.2942 165.621 33.1899 166.214 32.9718 166.768C32.8534 167.072 32.7065 167.361 32.5358 167.636L41.2711 171.863L47.9541 162.18C47.6745 162.062 47.4043 161.915 47.1484 161.739C46.6649 161.412 46.2431 161.005 45.9018 160.526C45.3236 159.711 45.0107 158.749 45.006 157.753C44.987 155.08 47.1484 152.89 49.8216 152.871C49.9401 152.871 50.0633 152.871 50.1818 152.881C52.5754 153.042 54.5092 154.962 54.6845 157.355C54.7651 158.488 54.4665 159.573 53.8219 160.498C53.4807 160.981 53.0635 161.393 52.5848 161.72C52.3336 161.896 52.0635 162.043 51.7838 162.161L58.5853 171.745L67.1784 167.446C67.0173 167.138 66.8893 166.816 66.7945 166.479C66.6808 166.071 66.6192 165.645 66.6192 165.214C66.6192 165.019 66.6286 164.825 66.6476 164.635C66.9225 162.199 68.9795 160.351 71.4299 160.336C74.1031 160.317 76.2929 162.479 76.3071 165.152C76.3261 167.702 74.3449 169.844 71.7996 170.02L71.4963 170.029C71.0034 170.029 70.5199 169.963 70.0507 169.821C69.7474 169.726 69.4535 169.607 69.1786 169.456L64.8654 181.85C64.472 182.992 63.3914 183.76 62.1827 183.77L37.8395 183.931V183.935Z" fill="#110A1D"/>
<path d="M99.0902 49.5555C99.0902 50.5443 98.2887 51.3354 97.3103 51.3354C96.3319 51.3354 95.5304 50.5339 95.5304 49.5555C95.5304 24.2 74.9005 3.57014 49.5451 3.57014C24.1896 3.57013 3.55974 24.2 3.55973 49.5555C3.55973 50.5443 2.75825 51.3354 1.77984 51.3354C0.801423 51.3354 -8.02232e-07 50.5339 -7.16696e-07 49.5555C1.67193e-06 22.2328 22.2328 -2.05481e-05 49.5555 -1.81594e-05C76.8782 -1.57708e-05 99.111 22.2328 99.111 49.5555L99.0902 49.5555Z" fill="white"/>
<path d="M99.5402 51.0401V170.635C99.5402 171.624 98.7387 172.415 97.7603 172.415C96.7819 172.415 95.9805 171.614 95.9805 170.635V51.0401C95.9805 50.0513 96.7819 49.2602 97.7603 49.2602C98.7387 49.2602 99.5402 50.0617 99.5402 51.0401Z" fill="white"/>
<path d="M3.99724 50.7799V170.375C3.99724 171.364 3.19581 172.155 2.2174 172.155C1.23899 172.155 0.4375 171.354 0.4375 170.375V50.7799C0.4375 49.791 1.23899 49 2.2174 49C3.19581 49 3.99724 49.8015 3.99724 50.7799Z" fill="white"/>
</svg>
